# xmcd
# Track frame offsets:
# 150
# 21429
# 38886
# 56535
# 78794
# 103128
# 117188
# 140309
# 162347
# 179912
# 199986
# 222968
# 240362
#
# Disc length: 3493 seconds
# Revision: 0
# Processed by: cddbd v1.5.2PL0 Copyright (c) Steve Scherf et al.
# Submitted via: VisiTrax 2.10.2.252 - For more info visit www.synapsa.com
#
DISCID=b60da30d
DTITLE=Coco Montoya - Just let go
DYEAR=1997
DGENRE=Blues
TTITLE0=Fear no evil
TTITLE1=What´s done Is done
TTITLE2=Just let go
TTITLE3=My side of the fence
TTITLE4=Cool like that
TTITLE5=Do what you want to do
TTITLE6=Give It to a good man
TTITLE7=Hard love
TTITLE8=Beginner at the blues
TTITLE9=Mother and daughter
TTITLE10=Nothing´s too good for my baby
TTITLE11=Never seen you cry this way before
TTITLE12=Sending me angels
EXTD=
EXTT0=
EXTT1=
EXTT2=
EXTT3=
EXTT4=
EXTT5=
EXTT6=
EXTT7=
EXTT8=
EXTT9=
EXTT10=
EXTT11=
EXTT12=
PLAYORDER=
